<svg width="46" height="50" viewBox="0 0 46 50" fill="none" xmlns="http://www.w3.org/2000/svg">
<path d="M22.8803 8.61001C20.9671 8.61001 19.4106 6.98658 19.4106 4.99104V3.61897C19.4106 1.62343 20.9671 0 22.8803 0C24.7941 0 26.3506 1.62343 26.3506 3.61897V4.99104C26.3506 6.98658 24.7941 8.61001 22.8803 8.61001ZM22.8803 1.09766C21.5475 1.09766 20.463 2.22879 20.463 3.61897V4.99104C20.463 6.38122 21.5475 7.51236 22.8803 7.51236C24.2132 7.51236 25.2982 6.38122 25.2982 4.99104V3.61897C25.2982 2.22879 24.2132 1.09766 22.8803 1.09766Z" fill="white"/>
<path d="M26.6884 16.0099H19.0723C18.1609 16.0099 17.4189 15.2366 17.4189 14.2855V12.1045C17.4189 9.7917 18.7439 7.72536 20.794 6.84065L21.0881 6.71387L21.3323 6.92681C22.1989 7.682 23.5612 7.682 24.4284 6.92681L24.6726 6.71387L24.9672 6.84065C27.0173 7.72536 28.3417 9.7917 28.3417 12.1045V14.2855C28.3417 15.2366 27.6003 16.0099 26.6884 16.0099ZM20.9276 7.98221C19.4259 8.75496 18.4713 10.3411 18.4713 12.105V14.286C18.4713 14.6313 18.7408 14.9128 19.0723 14.9128H26.6889C27.0204 14.9128 27.2899 14.6318 27.2899 14.286V12.105C27.2899 10.3411 26.3353 8.75496 24.8336 7.98221C23.6865 8.79612 22.0742 8.79667 20.9276 7.98221Z" fill="white"/>
<path d="M6.16777 38.906C4.25452 38.906 2.69751 37.2825 2.69751 35.287V33.9149C2.69751 31.9188 4.254 30.2954 6.16777 30.2954C8.08155 30.2954 9.63751 31.9188 9.63751 33.9149V35.287C9.63751 37.2825 8.08102 38.906 6.16777 38.906ZM6.16777 31.3931C4.83439 31.3931 3.7499 32.5247 3.7499 33.9149V35.287C3.7499 36.6772 4.83439 37.8083 6.16777 37.8083C7.50063 37.8083 8.58512 36.6772 8.58512 35.287V33.9149C8.58512 32.5247 7.50063 31.3931 6.16777 31.3931Z" fill="white"/>
<path d="M9.97639 46.3058H2.35918C1.44781 46.3058 0.705872 45.532 0.705872 44.5808V42.3998C0.705872 40.087 2.03083 38.0207 4.08089 37.1365L4.37504 37.0098L4.61919 37.2227C5.48531 37.9773 6.84816 37.9773 7.7148 37.2227L7.95896 37.0098L8.2531 37.1365C10.3032 38.0207 11.6281 40.087 11.6281 42.3998V44.5808C11.6292 45.532 10.8878 46.3058 9.97639 46.3058ZM4.21507 38.2781C2.71331 39.0498 1.75879 40.6364 1.75879 42.4004V44.5814C1.75879 44.9272 2.0282 45.2087 2.35971 45.2087H9.97639C10.3074 45.2087 10.5773 44.9272 10.5773 44.5814V42.4004C10.5773 40.6364 9.62279 39.0503 8.12103 38.2781C6.97392 39.0926 5.36165 39.092 4.21507 38.2781Z" fill="white"/>
<path d="M39.5928 38.906C37.6796 38.906 36.1231 37.2825 36.1231 35.287V33.9149C36.1231 31.9188 37.6796 30.2954 39.5928 30.2954C41.5066 30.2954 43.0631 31.9188 43.0631 33.9149V35.287C43.0626 37.2825 41.5061 38.906 39.5928 38.906ZM39.5928 31.3931C38.26 31.3931 37.1755 32.5247 37.1755 33.9149V35.287C37.1755 36.6772 38.26 37.8083 39.5928 37.8083C40.9257 37.8083 42.0107 36.6772 42.0107 35.287V33.9149C42.0102 32.5247 40.9257 31.3931 39.5928 31.3931Z" fill="white"/>
<path d="M43.4009 46.3058H35.7842C34.8729 46.3058 34.1309 45.532 34.1309 44.5808V42.3998C34.1309 40.087 35.4559 38.0207 37.5059 37.1365L37.8001 37.0098L38.0442 37.2227C38.9114 37.9773 40.2732 37.9773 41.1409 37.2227L41.3851 37.0098L41.6792 37.1365C43.7298 38.0213 45.0548 40.087 45.0548 42.3998V44.5808C45.0548 45.532 44.3123 46.3058 43.4009 46.3058ZM37.6401 38.2781C36.1384 39.0498 35.1838 40.6364 35.1838 42.4004V44.5814C35.1838 44.9272 35.4533 45.2087 35.7848 45.2087H43.4014C43.7329 45.2087 44.0029 44.9272 44.0029 44.5814V42.4004C44.0029 40.6364 43.0484 39.0503 41.5461 38.2781C40.3995 39.092 38.7862 39.092 37.6401 38.2781Z" fill="white"/>
<path d="M3.95568 29.0084C3.94989 29.0084 3.94463 29.0084 3.93884 29.0079C3.64838 28.9985 3.42001 28.745 3.42948 28.4426C3.6547 20.9692 7.78428 14.2515 14.206 10.9103C14.4654 10.7753 14.7816 10.885 14.9116 11.1567C15.0416 11.4278 14.9353 11.7577 14.6753 11.8927C8.60041 15.0528 4.69393 21.4077 4.48082 28.4766C4.4724 28.7741 4.23877 29.0084 3.95568 29.0084Z" fill="white"/>
<path d="M41.8049 29.0084C41.5224 29.0084 41.2887 28.774 41.2798 28.4766C41.0598 21.192 36.985 14.7526 30.6454 11.6709C30.3818 11.543 30.2676 11.2165 30.3907 10.9415C30.5122 10.6671 30.8264 10.5469 31.0895 10.6759C37.7911 13.9332 42.0991 20.7403 42.3311 28.442C42.3406 28.7449 42.1122 28.9985 41.8218 29.0073C41.816 29.0084 41.8107 29.0084 41.8049 29.0084Z" fill="white"/>
<path d="M22.8804 49.3944C20.0615 49.3944 17.3353 48.7743 14.7775 47.5515C14.5133 47.4252 14.397 47.0992 14.518 46.8237C14.6391 46.5477 14.9522 46.4275 15.2158 46.5537C17.6352 47.7106 20.2141 48.2968 22.8804 48.2968C25.5466 48.2968 28.1255 47.7106 30.5444 46.5531C30.8112 46.4275 31.1222 46.5482 31.2421 46.8232C31.3632 47.0987 31.2474 47.4247 30.9832 47.5509C28.4254 48.7743 25.6992 49.3944 22.8804 49.3944Z" fill="white"/>
<path d="M22.0531 35.731H12.3717C12.0812 35.731 11.8455 35.4857 11.8455 35.1822V29.8876C11.8455 27.1731 13.6871 24.7742 16.2239 24.1842C16.5065 24.1206 16.7891 24.3044 16.8522 24.6002C16.9154 24.896 16.737 25.1897 16.4534 25.255C14.3933 25.7341 12.8979 27.6824 12.8979 29.8871V34.6328H22.0531C23.0298 34.6328 23.9611 34.315 24.7457 33.7135C24.9793 33.5335 25.3087 33.5867 25.4808 33.831C25.6528 34.0746 25.6023 34.4182 25.3682 34.5977C24.4021 35.3391 23.2555 35.731 22.0531 35.731Z" fill="white"/>
<path d="M33.8173 31.6614H24.1363C21.047 31.6614 18.5339 29.0402 18.5339 25.818C18.5339 22.5958 21.047 19.9746 24.1363 19.9746H28.7411C31.8304 19.9746 34.3435 22.5958 34.3435 25.818V31.1125C34.3435 31.416 34.1083 31.6614 33.8173 31.6614ZM24.1363 21.0723C21.6274 21.0723 19.5863 23.2012 19.5863 25.818C19.5863 28.4353 21.6274 30.5637 24.1363 30.5637H33.2911V25.818C33.2911 23.2012 31.25 21.0723 28.7411 21.0723H24.1363Z" fill="white"/>
<path d="M30.2144 25.269H23.4091C23.1187 25.269 22.8829 25.0232 22.8829 24.7202C22.8829 24.4173 23.1187 24.1714 23.4091 24.1714H30.2149C30.5059 24.1714 30.7411 24.4173 30.7411 24.7202C30.7411 25.0232 30.5054 25.269 30.2144 25.269Z" fill="white"/>
<path d="M26.5311 28.0132H23.4086C23.1182 28.0132 22.8824 27.7679 22.8824 27.4644C22.8824 27.1609 23.1182 26.9155 23.4086 26.9155H26.5311C26.8221 26.9155 27.0573 27.1609 27.0573 27.4644C27.0573 27.7679 26.8221 28.0132 26.5311 28.0132Z" fill="white"/>
</svg>
