<svg width="720" height="130" viewBox="0 0 720 130" fill="none" xmlns="http://www.w3.org/2000/svg">
<path d="M0.700219 71.998C0.563804 71.671 0.496313 71.3159 0.492388 70.9616C0.0633913 32.2322 25.1866 0.500015 65.5 0.5C106 0.499985 120 26 123 36C126 46 120 51 113 54C106 57 69.5 52.5 65.5 55.5C61.5 58.5 59.5 62.5 57.5 64C55.9392 65.1706 44.9386 64.8186 40.1823 64.6076C38.9567 64.5532 38 63.5411 38 62.3142C38 61.0361 36.9639 60 35.6858 60H26.1675C25.4166 60 24.659 59.7458 24.1951 59.1553C23.4768 58.2411 23.4624 57.4741 24.1759 56.4666C24.6454 55.8035 25.4587 55.5 26.2712 55.5H35C36.6568 55.5 38 54.1569 38 52.5V49C38 47.3431 36.6568 46 35 46H26.1467C25.4083 46 24.6468 45.7634 24.2236 45.1583C23.6983 44.407 23.7023 43.7004 24.1803 42.7704C24.6152 41.9243 25.5612 41.5 26.5125 41.5H35.75C36.9926 41.5 38 40.4926 38 39.25C38 38.0074 39.007 37.0004 40.2496 36.9871C47.2869 36.9118 55.1956 36.5489 57 37C59 37.5 63.5 46 65.5 46H108C118 46 115.5 36 113 32.5C110.5 29 104 10.5 64 7.5C24.3704 4.52779 4.86286 47.6892 8.88117 70.8558C8.95599 71.2872 8.95312 71.7228 8.82204 72.1406C8.20172 74.1175 7.19649 74.8191 4.5 75C2.71353 75.1457 1.7983 74.6306 0.700219 71.998Z" fill="#A18A68"/>
<path d="M144.092 57.0244C144.228 57.3515 144.296 57.7065 144.299 58.0609C144.728 96.7903 119.605 128.522 79.2919 128.522C38.7919 128.522 24.7919 103.022 21.7919 93.0224C18.7919 83.0224 24.7919 78.0224 31.7919 75.0224C38.7919 72.0225 75.2919 76.5225 79.2919 73.5224C83.2919 70.5224 85.2919 66.5224 87.2919 65.0224C88.8527 63.8518 99.8533 64.2038 104.61 64.4148C105.835 64.4692 106.792 65.4814 106.792 66.7082C106.792 67.9863 107.828 69.0224 109.106 69.0224H118.624C119.375 69.0224 120.133 69.2767 120.597 69.8671C121.315 70.7813 121.329 71.5484 120.616 72.5559C120.146 73.219 119.333 73.5224 118.521 73.5224H109.792C108.135 73.5224 106.792 74.8656 106.792 76.5224V80.0224C106.792 81.6793 108.135 83.0224 109.792 83.0224H118.645C119.384 83.0224 120.145 83.259 120.568 83.8642C121.094 84.6154 121.09 85.322 120.612 86.2521C120.177 87.0982 119.231 87.5224 118.279 87.5224H109.042C107.799 87.5224 106.792 88.5298 106.792 89.7724C106.792 91.0151 105.785 92.0221 104.542 92.0354C97.505 92.1107 89.5962 92.4735 87.7919 92.0224C85.7919 91.5224 81.2919 83.0224 79.2919 83.0224H36.7919C26.7919 83.0224 29.2919 93.0224 31.7919 96.5224C34.2919 100.022 40.7919 118.522 80.7919 121.522C120.422 124.495 139.929 81.3332 135.911 58.1667C135.836 57.7353 135.839 57.2996 135.97 56.8819C136.59 54.9049 137.595 54.2033 140.292 54.0224C142.078 53.8767 142.994 54.3918 144.092 57.0244Z" fill="black"/>
<path d="M79.2919 83.0224C81.2919 83.0224 85.7919 91.5224 87.7919 92.0224C89.5962 92.4735 97.505 92.1107 104.542 92.0354C105.785 92.0221 106.792 91.0151 106.792 89.7724V89.7724C106.792 88.5298 107.799 87.5224 109.042 87.5224H118.279C119.231 87.5224 120.177 87.0982 120.612 86.2521C121.09 85.322 121.094 84.6154 120.568 83.8642C120.145 83.259 119.384 83.0224 118.645 83.0224H109.792C108.135 83.0224 106.792 81.6793 106.792 80.0224V76.5224C106.792 74.8656 108.135 73.5224 109.792 73.5224H118.521C119.333 73.5224 120.146 73.219 120.616 72.5559C121.329 71.5484 121.315 70.7814 120.597 69.8671C120.133 69.2767 119.375 69.0224 118.624 69.0224H109.106C107.828 69.0224 106.792 67.9863 106.792 66.7082V66.7082C106.792 65.4814 105.835 64.4692 104.61 64.4148C99.8533 64.2038 88.8527 63.8518 87.2919 65.0224C85.2919 66.5224 83.2919 70.5224 79.2919 73.5224C75.2919 76.5225 38.7919 72.0225 31.7919 75.0224C24.7919 78.0224 18.7919 83.0224 21.7919 93.0224C24.7919 103.022 38.7919 128.522 79.2919 128.522C119.605 128.522 144.728 96.7903 144.299 58.0609C144.296 57.7065 144.228 57.3515 144.092 57.0244C142.994 54.3918 142.078 53.8767 140.292 54.0224C137.595 54.2033 136.59 54.9049 135.97 56.8819C135.839 57.2996 135.836 57.7353 135.911 58.1667C139.929 81.3332 120.422 124.495 80.7919 121.522C40.7919 118.522 34.2919 100.022 31.7919 96.5224C29.2919 93.0224 26.7919 83.0224 36.7919 83.0224M79.2919 83.0224C77.2919 83.0224 46.7919 83.0224 36.7919 83.0224M79.2919 83.0224H36.7919" stroke="#070606"/>
<path d="M178 32.152H201.904V39.832H185.872V57.112H197.872V64.984H185.872V80.344H203.248V88.024H178V32.152ZM207.062 32.152H214.935V80.344H232.215V88.024H207.062V32.152ZM235.938 32.152H259.842V39.832H243.81V57.112H255.81V64.984H243.81V80.344H261.186V88.024H235.938V32.152ZM278.756 31.384C280.74 31.384 282.756 31.672 284.804 32.248C286.916 32.76 288.324 33.176 289.028 33.496C289.796 33.816 290.372 34.072 290.756 34.264L287.204 41.272L285.668 40.696C284.58 40.248 283.204 39.864 281.54 39.544C280.452 39.352 279.46 39.256 278.564 39.256C277.988 39.256 277.444 39.288 276.932 39.352C274.372 39.736 272.388 41.016 270.98 43.192C268.804 46.392 267.716 51.352 267.716 58.072C267.716 66.52 268.868 72.632 271.172 76.408C272.068 77.816 272.964 78.776 273.86 79.288C274.82 79.8 275.94 80.12 277.22 80.248C277.476 80.248 277.7 80.248 277.892 80.248C279.108 80.248 280.516 79.992 282.116 79.48C284.036 78.84 285.348 78.328 286.052 77.944C286.82 77.496 287.428 77.144 287.876 76.888L292.388 83.32L290.372 84.664C289.028 85.56 287.044 86.392 284.42 87.16C282.308 87.8 280.228 88.12 278.18 88.12C277.668 88.12 277.156 88.088 276.644 88.024C274.34 87.832 272.1 87.128 269.924 85.912C267.812 84.632 266.02 82.84 264.548 80.536C261.412 75.544 259.844 68.056 259.844 58.072C259.844 49.688 261.38 43.224 264.452 38.68C267.204 34.648 270.98 32.312 275.78 31.672C276.74 31.48 277.732 31.384 278.756 31.384ZM296.219 32.152H304.091V53.368L317.147 32.152H326.363L312.443 54.712L312.635 54.616L327.899 86.296L320.795 89.656L307.643 62.392L304.091 68.248V88.024H296.219V32.152ZM331.656 32.152H369.768V39.832H354.6V88.024H346.824V39.832H331.656V32.152ZM385.083 30.52C385.211 30.52 385.403 30.52 385.659 30.52C386.363 30.52 387.355 30.584 388.635 30.712C392.539 31.16 395.707 32.504 398.139 34.744C401.147 37.56 402.651 41.496 402.651 46.552C402.651 51.416 401.307 55.384 398.619 58.456C396.443 60.888 393.531 62.584 389.883 63.544C389.883 63.608 389.691 63.672 389.307 63.736L403.131 85.912L396.507 90.04L381.435 65.944V88.024H373.562V32.44L376.443 31.576L377.403 31.384C378.235 31.192 379.163 31 380.187 30.808C381.467 30.68 382.747 30.584 384.027 30.52C384.411 30.52 384.763 30.52 385.083 30.52ZM384.795 38.296C383.707 38.296 382.587 38.392 381.435 38.584V56.632C381.947 56.632 382.427 56.632 382.875 56.632C384.731 56.632 386.395 56.44 387.867 56.056C389.979 55.48 391.611 54.552 392.763 53.272C394.171 51.672 394.875 49.432 394.875 46.552C394.875 43.8 394.171 41.784 392.763 40.504C391.611 39.416 389.915 38.744 387.674 38.488C387.163 38.424 386.619 38.392 386.043 38.392C385.659 38.328 385.243 38.296 384.795 38.296ZM425.946 31.096C428.954 31.096 431.61 32.024 433.914 33.88C436.282 35.736 438.17 38.136 439.578 41.08C442.074 46.264 443.322 52.504 443.322 59.8C443.258 67.16 441.946 73.4 439.386 78.52C437.914 81.464 435.962 83.864 433.53 85.72C431.098 87.512 428.378 88.408 425.37 88.408C422.362 88.408 419.642 87.512 417.21 85.72C414.778 83.928 412.794 81.56 411.258 78.616C408.506 73.368 407.066 67.096 406.938 59.8C406.938 59.48 406.938 59.16 406.938 58.84C406.938 51.864 408.25 45.88 410.874 40.888C412.41 38.008 414.49 35.672 417.114 33.88C419.738 32.024 422.682 31.096 425.946 31.096ZM425.946 38.968C424.154 38.968 422.618 39.416 421.338 40.312C420.058 41.208 418.874 42.648 417.786 44.632C415.802 48.344 414.81 53.016 414.81 58.648C414.81 58.968 414.81 59.32 414.81 59.704C414.938 65.72 416.058 70.808 418.17 74.968C420.154 78.744 422.554 80.632 425.37 80.632C428.186 80.632 430.522 78.776 432.378 75.064C434.426 70.968 435.45 65.848 435.45 59.704C435.45 53.624 434.49 48.536 432.57 44.44C430.778 40.792 428.57 38.968 425.946 38.968ZM447.156 32.152H455.412L471.636 69.208V32.152H479.508V88.024H471.348L455.028 50.968V88.024H447.156V32.152ZM485.312 32.152H493.185V88.024H485.312V32.152ZM499 32.152H506.872V53.368L519.928 32.152H529.144L515.224 54.712L515.416 54.616L530.68 86.296L523.576 89.656L510.424 62.392L506.872 68.248V88.024H499V32.152ZM547.65 31.096C547.778 31.096 547.938 31.096 548.13 31.096C550.562 31.096 552.802 31.576 554.85 32.536C557.026 33.56 558.722 35.128 559.938 37.24L553.122 41.176C552.802 40.728 551.938 40.216 550.53 39.64C549.442 39.192 548.418 38.968 547.458 38.968C547.138 38.968 546.818 39 546.498 39.064C545.09 39.256 544.002 39.768 543.234 40.6C542.21 41.688 541.698 43.352 541.698 45.592C541.698 46.808 542.338 48.12 543.618 49.528C544.386 50.36 546.562 52.088 550.146 54.712C551.746 55.928 553.09 57.08 554.178 58.168C555.33 59.192 556.546 60.504 557.826 62.104C559.106 63.704 560.098 65.496 560.802 67.48C561.506 69.4 561.858 71.48 561.858 73.72C561.858 78.264 560.354 81.976 557.346 84.856C554.338 87.736 550.882 89.24 546.978 89.368C546.786 89.368 546.594 89.368 546.402 89.368C542.626 89.368 539.394 88.152 536.706 85.72C533.506 82.904 531.906 79.128 531.906 74.392H539.778C539.778 76.76 540.482 78.584 541.89 79.864C543.106 80.952 544.642 81.496 546.498 81.496C546.626 81.496 546.722 81.496 546.786 81.496C548.898 81.432 550.626 80.792 551.97 79.576C553.314 78.296 553.986 76.344 553.986 73.72C553.986 71.032 553.282 68.792 551.874 67C550.53 65.208 548.354 63.192 545.346 60.952C541.506 58.008 539.042 55.992 537.954 54.904C535.202 52.024 533.826 48.92 533.826 45.592C533.826 41.368 535.042 37.976 537.474 35.416C539.522 33.112 542.178 31.736 545.442 31.288C546.21 31.16 546.946 31.096 547.65 31.096Z" fill="#A18A68"/>
<path d="M592.386 89.6136C590.727 89.6136 589.222 89.3011 587.869 88.6761C586.517 88.0398 585.443 87.125 584.648 85.9318C583.852 84.7273 583.455 83.2727 583.455 81.5682C583.455 80.0682 583.75 78.8523 584.341 77.9205C584.932 76.9773 585.722 76.2386 586.71 75.7045C587.699 75.1705 588.79 74.7727 589.983 74.5114C591.188 74.2386 592.398 74.0227 593.614 73.8636C595.205 73.6591 596.494 73.5057 597.483 73.4034C598.483 73.2898 599.21 73.1023 599.665 72.8409C600.131 72.5795 600.364 72.125 600.364 71.4773V71.3409C600.364 69.6591 599.903 68.3523 598.983 67.4205C598.074 66.4886 596.693 66.0227 594.841 66.0227C592.92 66.0227 591.415 66.4432 590.324 67.2841C589.233 68.125 588.466 69.0227 588.023 69.9773L584.205 68.6136C584.886 67.0227 585.795 65.7841 586.932 64.8977C588.08 64 589.33 63.375 590.682 63.0227C592.045 62.6591 593.386 62.4773 594.705 62.4773C595.545 62.4773 596.511 62.5795 597.602 62.7841C598.705 62.9773 599.767 63.3807 600.79 63.9943C601.824 64.608 602.682 65.5341 603.364 66.7727C604.045 68.0114 604.386 69.6705 604.386 71.75V89H600.364V85.4545H600.159C599.886 86.0227 599.432 86.6307 598.795 87.2784C598.159 87.9261 597.313 88.4773 596.256 88.9318C595.199 89.3864 593.909 89.6136 592.386 89.6136ZM593 86C594.591 86 595.932 85.6875 597.023 85.0625C598.125 84.4375 598.955 83.6307 599.511 82.642C600.08 81.6534 600.364 80.6136 600.364 79.5227V75.8409C600.193 76.0455 599.818 76.233 599.239 76.4034C598.67 76.5625 598.011 76.7045 597.261 76.8295C596.523 76.9432 595.801 77.0455 595.097 77.1364C594.403 77.2159 593.841 77.2841 593.409 77.3409C592.364 77.4773 591.386 77.6989 590.477 78.0057C589.58 78.3011 588.852 78.75 588.295 79.3523C587.75 79.9432 587.477 80.75 587.477 81.7727C587.477 83.1705 587.994 84.2273 589.028 84.9432C590.074 85.6477 591.398 86 593 86ZM621.615 89.5455C619.433 89.5455 617.507 88.9943 615.837 87.892C614.166 86.7784 612.859 85.2102 611.916 83.1875C610.973 81.1534 610.501 78.75 610.501 75.9773C610.501 73.2273 610.973 70.8409 611.916 68.8182C612.859 66.7955 614.172 65.233 615.854 64.1307C617.536 63.0284 619.479 62.4773 621.683 62.4773C623.388 62.4773 624.734 62.7614 625.723 63.3295C626.723 63.8864 627.484 64.5227 628.007 65.2386C628.541 65.9432 628.956 66.5227 629.251 66.9773H629.592V54.0909H633.615V89H629.729V84.9773H629.251C628.956 85.4545 628.536 86.0568 627.99 86.7841C627.445 87.5 626.666 88.142 625.655 88.7102C624.643 89.267 623.297 89.5455 621.615 89.5455ZM622.161 85.9318C623.774 85.9318 625.138 85.5114 626.251 84.6705C627.365 83.8182 628.212 82.642 628.791 81.142C629.371 79.6307 629.661 77.8864 629.661 75.9091C629.661 73.9545 629.376 72.2443 628.808 70.7784C628.24 69.3011 627.399 68.1534 626.286 67.3352C625.172 66.5057 623.797 66.0909 622.161 66.0909C620.456 66.0909 619.036 66.5284 617.899 67.4034C616.774 68.267 615.928 69.4432 615.359 70.9318C614.803 72.4091 614.524 74.0682 614.524 75.9091C614.524 77.7727 614.808 79.4659 615.376 80.9886C615.956 82.5 616.808 83.7045 617.933 84.6023C619.07 85.4886 620.479 85.9318 622.161 85.9318ZM641.541 89V62.8182H645.428V66.9091H645.768C646.314 65.5114 647.195 64.4261 648.411 63.6534C649.626 62.8693 651.087 62.4773 652.791 62.4773C654.518 62.4773 655.956 62.8693 657.104 63.6534C658.263 64.4261 659.166 65.5114 659.814 66.9091H660.087C660.757 65.5568 661.763 64.483 663.104 63.6875C664.445 62.8807 666.053 62.4773 667.928 62.4773C670.268 62.4773 672.183 63.2102 673.672 64.6761C675.161 66.1307 675.905 68.3977 675.905 71.4773V89H671.882V71.4773C671.882 69.5455 671.354 68.1648 670.297 67.3352C669.24 66.5057 667.996 66.0909 666.564 66.0909C664.723 66.0909 663.297 66.6477 662.286 67.7614C661.274 68.8636 660.768 70.2614 660.768 71.9545V89H656.678V71.0682C656.678 69.5795 656.195 68.3807 655.229 67.4716C654.263 66.5511 653.018 66.0909 651.496 66.0909C650.45 66.0909 649.473 66.3693 648.564 66.9261C647.666 67.483 646.939 68.2557 646.382 69.2443C645.837 70.2216 645.564 71.3523 645.564 72.6364V89H641.541ZM683.26 89V62.8182H687.283V89H683.26ZM685.305 58.4545C684.521 58.4545 683.845 58.1875 683.277 57.6534C682.72 57.1193 682.442 56.4773 682.442 55.7273C682.442 54.9773 682.72 54.3352 683.277 53.8011C683.845 53.267 684.521 53 685.305 53C686.089 53 686.76 53.267 687.317 53.8011C687.885 54.3352 688.169 54.9773 688.169 55.7273C688.169 56.4773 687.885 57.1193 687.317 57.6534C686.76 58.1875 686.089 58.4545 685.305 58.4545ZM698.673 73.25V89H694.651V62.8182H698.537V66.9091H698.878C699.491 65.5795 700.423 64.5114 701.673 63.7045C702.923 62.8864 704.537 62.4773 706.514 62.4773C708.287 62.4773 709.838 62.8409 711.168 63.5682C712.497 64.2841 713.531 65.375 714.27 66.8409C715.009 68.2955 715.378 70.1364 715.378 72.3636V89H711.355V72.6364C711.355 70.5795 710.821 68.9773 709.753 67.8295C708.685 66.6705 707.219 66.0909 705.355 66.0909C704.071 66.0909 702.923 66.3693 701.912 66.9261C700.912 67.483 700.122 68.2955 699.543 69.3636C698.963 70.4318 698.673 71.7273 698.673 73.25Z" fill="#070606"/>
</svg>
