<svg width="644" height="133" viewBox="0 0 644 133" fill="none" xmlns="http://www.w3.org/2000/svg">
<path d="M82.24 32.84L67.6 89H51.04L42.08 52.04L32.8 89H16.24L2 32.84H16.64L24.72 73.72L34.72 32.84H49.76L59.36 73.72L67.52 32.84H82.24ZM98.7806 43.8V55.16H117.101V65.72H98.7806V78.04H119.501V89H85.1006V32.84H119.501V43.8H98.7806ZM144.702 89.56C140.595 89.56 136.915 88.8933 133.662 87.56C130.409 86.2267 127.795 84.2533 125.822 81.64C123.902 79.0267 122.889 75.88 122.782 72.2H137.342C137.555 74.28 138.275 75.88 139.502 77C140.729 78.0667 142.329 78.6 144.302 78.6C146.329 78.6 147.929 78.1467 149.102 77.24C150.275 76.28 150.862 74.9733 150.862 73.32C150.862 71.9333 150.382 70.7867 149.422 69.88C148.515 68.9733 147.369 68.2267 145.982 67.64C144.649 67.0533 142.729 66.3867 140.222 65.64C136.595 64.52 133.635 63.4 131.342 62.28C129.049 61.16 127.075 59.5067 125.422 57.32C123.769 55.1333 122.942 52.28 122.942 48.76C122.942 43.5333 124.835 39.4533 128.622 36.52C132.409 33.5333 137.342 32.04 143.422 32.04C149.609 32.04 154.595 33.5333 158.382 36.52C162.169 39.4533 164.195 43.56 164.462 48.84H149.662C149.555 47.0267 148.889 45.6133 147.662 44.6C146.435 43.5333 144.862 43 142.942 43C141.289 43 139.955 43.4533 138.942 44.36C137.929 45.2133 137.422 46.4667 137.422 48.12C137.422 49.9333 138.275 51.3467 139.982 52.36C141.689 53.3733 144.355 54.4667 147.982 55.64C151.609 56.8667 154.542 58.04 156.782 59.16C159.075 60.28 161.049 61.9067 162.702 64.04C164.355 66.1733 165.182 68.92 165.182 72.28C165.182 75.48 164.355 78.3867 162.702 81C161.102 83.6133 158.755 85.6933 155.662 87.24C152.569 88.7867 148.915 89.56 144.702 89.56ZM210.001 32.84V43.8H195.121V89H181.441V43.8H166.561V32.84H210.001ZM250.146 50.6C249.133 48.7333 247.666 47.32 245.746 46.36C243.88 45.3467 241.666 44.84 239.106 44.84C234.68 44.84 231.133 46.3067 228.466 49.24C225.8 52.12 224.466 55.9867 224.466 60.84C224.466 66.0133 225.853 70.0667 228.626 73C231.453 75.88 235.32 77.32 240.226 77.32C243.586 77.32 246.413 76.4667 248.706 74.76C251.053 73.0533 252.76 70.6 253.826 67.4H236.466V57.32H266.226V70.04C265.213 73.4533 263.48 76.6267 261.026 79.56C258.626 82.4933 255.56 84.8667 251.826 86.68C248.093 88.4933 243.88 89.4 239.186 89.4C233.64 89.4 228.68 88.2 224.306 85.8C219.986 83.3467 216.6 79.96 214.146 75.64C211.746 71.32 210.546 66.3867 210.546 60.84C210.546 55.2933 211.746 50.36 214.146 46.04C216.6 41.6667 219.986 38.28 224.306 35.88C228.626 33.4267 233.56 32.2 239.106 32.2C245.826 32.2 251.48 33.8267 256.066 37.08C260.706 40.3333 263.773 44.84 265.266 50.6H250.146ZM304.764 79.08H283.804L280.444 89H266.124L286.444 32.84H302.284L322.604 89H308.124L304.764 79.08ZM301.244 68.52L294.284 47.96L287.404 68.52H301.244ZM365.188 32.84V43.8H350.308V89H336.628V43.8H321.748V32.84H365.188ZM381.734 43.8V55.16H400.054V65.72H381.734V78.04H402.454V89H368.054V32.84H402.454V43.8H381.734Z" fill="#228B22"/>
<rect x="419" y="26" width="225" height="68" fill="#228B22"/>
<path d="M489.56 31.84V88H475.88V54.32L463.32 88H452.28L439.64 54.24V88H425.96V31.84H442.12L457.88 70.72L473.48 31.84H489.56ZM530.358 78.08H509.398L506.038 88H491.718L512.038 31.84H527.878L548.198 88H533.718L530.358 78.08ZM526.838 67.52L519.878 46.96L512.998 67.52H526.838ZM579.022 88L567.342 66.8H564.062V88H550.382V31.84H573.342C577.769 31.84 581.529 32.6133 584.622 34.16C587.769 35.7067 590.115 37.84 591.662 40.56C593.209 43.2267 593.982 46.2133 593.982 49.52C593.982 53.2533 592.915 56.5867 590.782 59.52C588.702 62.4533 585.609 64.5333 581.502 65.76L594.462 88H579.022ZM564.062 57.12H572.542C575.049 57.12 576.915 56.5067 578.142 55.28C579.422 54.0533 580.062 52.32 580.062 50.08C580.062 47.9467 579.422 46.2667 578.142 45.04C576.915 43.8133 575.049 43.2 572.542 43.2H564.062V57.12ZM638.969 31.84V42.8H624.089V88H610.409V42.8H595.529V31.84H638.969Z" fill="white"/>
</svg>
