<svg width="49" height="50" viewBox="0 0 49 50" fill="none" xmlns="http://www.w3.org/2000/svg">
<g clip-path="url(#clip0_23_48)">
<path d="M26.6635 47.9224C19.5362 47.9224 12.8188 44.2952 8.69391 38.2196C7.44683 36.3827 6.46916 34.3734 5.78826 32.2462L6.79014 31.8977C7.43841 33.9218 8.36873 35.835 9.5553 37.583C13.4823 43.3676 19.8782 46.8209 26.6635 46.8209C38.214 46.8209 47.6114 37.0193 47.6114 24.972C47.6114 12.9247 38.214 3.12317 26.6635 3.12317C15.113 3.12317 5.71564 12.9247 5.71564 24.972H4.6601C4.6601 12.3177 14.5305 2.02222 26.6635 2.02222C38.7965 2.02222 48.6669 12.3177 48.6669 24.972C48.6669 37.6263 38.796 47.9224 26.6635 47.9224Z" fill="#FFF9F9"/>
<path d="M36.2771 33.8356L26.1373 25.2355V9.74756H27.1897V24.7086L36.9454 32.9795L36.2771 33.8356Z" fill="#FFF9F9"/>
<path d="M5.18945 25.7514L1.31139 21.7066L2.05332 20.9272L5.18945 24.1928L8.32032 20.9272L9.06752 21.7066L5.18945 25.7514Z" fill="#FFF9F9"/>
</g>
<defs>
<clipPath id="clip0_23_48">
<rect width="47.9381" height="50" fill="white" transform="translate(0.969055)"/>
</clipPath>
</defs>
</svg>
