<svg width="18" height="18" viewBox="0 0 18 18" fill="none" xmlns="http://www.w3.org/2000/svg">
<path d="M1 1C5.24346 1 9.31313 2.68571 12.3137 5.68629C15.3143 8.68687 17 12.7565 17 17M1 8C3.38695 8 5.67613 8.94821 7.36396 10.636C9.05179 12.3239 10 14.6131 10 17M1 16C1 16.2652 1.10536 16.5196 1.29289 16.7071C1.48043 16.8946 1.73478 17 2 17C2.26522 17 2.51957 16.8946 2.70711 16.7071C2.89464 16.5196 3 16.2652 3 16C3 15.7348 2.89464 15.4804 2.70711 15.2929C2.51957 15.1054 2.26522 15 2 15C1.73478 15 1.48043 15.1054 1.29289 15.2929C1.10536 15.4804 1 15.7348 1 16Z" stroke="white" stroke-width="2" stroke-linecap="round" stroke-linejoin="round"/>
</svg>
