<svg width="49" height="50" viewBox="0 0 49 50" fill="none" xmlns="http://www.w3.org/2000/svg">
<g clip-path="url(#clip0_23_18)">
<path d="M36.1912 13.9258C36.3922 12.8704 36.1807 11.832 35.5972 11.0011C35.0141 10.1701 34.1286 9.6471 33.1035 9.52745C32.0943 9.40945 31.0761 9.69978 30.2331 10.3436L13.0686 23.454L13.1533 18.8131C13.1723 17.7763 12.7945 16.8164 12.0888 16.1106C11.3585 15.3796 10.3787 15.0135 9.32209 15.0799C7.21573 15.2128 5.47086 17.0667 5.4314 19.2121L5.12568 36.0188C5.06096 39.0215 5.89814 41.8501 7.54671 44.198C10.0719 47.7945 14.0757 49.6698 18.2595 49.6693C21.3536 49.6693 24.5465 48.6441 27.3127 46.5311L34.4964 41.0439C36.256 39.6993 36.7127 37.2175 35.5146 35.5112C34.9315 34.6808 34.0459 34.1572 33.0209 34.0381C33.0141 34.0376 33.0078 34.0376 33.0009 34.037L33.1898 33.8927C34.0323 33.2489 34.6053 32.323 34.8021 31.2852C35.0031 30.2303 34.7916 29.1909 34.208 28.3605C33.625 27.5301 32.7394 27.0065 31.7144 26.8869C31.5297 26.8649 31.345 26.8616 31.1608 26.8671C31.3955 26.4577 31.5665 26.011 31.6565 25.539C31.857 24.4841 31.6454 23.4452 31.0624 22.6143C30.4552 21.7493 29.537 21.2488 28.5504 21.1385L34.5795 16.5332C35.4214 15.8895 35.9944 14.9636 36.1912 13.9258ZM33.9575 15.648L25.6978 21.9573L20.8658 25.6482C20.6311 25.8271 20.5806 26.1707 20.7521 26.4149C20.9237 26.6597 21.252 26.7129 21.4872 26.5334L26.3193 22.8426C27.6116 21.8558 29.3581 22.0451 30.2137 23.2624C30.6204 23.8425 30.7667 24.5752 30.6241 25.3255C30.4783 26.0927 30.0511 26.7804 29.4217 27.2612L24.5897 30.9521C24.355 31.131 24.3045 31.4745 24.476 31.7188C24.5239 31.7874 24.586 31.8368 24.6533 31.8746C24.6733 31.8862 24.6949 31.89 24.716 31.8982C24.7659 31.918 24.8154 31.9323 24.8686 31.9356C24.8796 31.9361 24.8901 31.9432 24.9012 31.9432C24.927 31.9432 24.9517 31.935 24.9775 31.9306C24.998 31.9273 25.0185 31.9262 25.0385 31.9207C25.099 31.9037 25.158 31.8779 25.2116 31.8368L29.4654 28.5877C30.0942 28.1069 30.8509 27.8868 31.5976 27.9769C32.3258 28.0614 32.952 28.4274 33.3593 29.0081C33.7665 29.5882 33.9128 30.3209 33.7702 31.0711C33.6245 31.8384 33.1972 32.5261 32.5679 33.0069L28.3967 36.1928C28.1625 36.3717 28.1115 36.7153 28.283 36.9595C28.3857 37.1066 28.5456 37.184 28.7077 37.184C28.8156 37.184 28.9245 37.15 29.0181 37.0781L30.7704 35.7395L30.7714 35.7389C31.4002 35.2582 32.1569 35.0419 32.9036 35.1281C33.6324 35.2126 34.258 35.5792 34.6653 36.1593C35.5209 37.3772 35.1657 39.1713 33.8739 40.1586L26.6902 45.6458C20.6521 50.2576 12.4445 49.3175 8.39441 43.5493C6.8837 41.3979 6.11703 38.8019 6.17649 36.0408L6.48274 19.2329C6.51168 17.6457 7.81349 16.2742 9.38471 16.1749C10.1461 16.1277 10.8433 16.3856 11.3595 16.9021C11.8505 17.3933 12.1136 18.0645 12.0999 18.7917L11.9952 24.5401C11.9915 24.7487 12.1015 24.9413 12.2788 25.0379C12.4566 25.1334 12.6703 25.1164 12.8323 24.9934L30.8546 11.2294C31.4834 10.7486 32.2395 10.5302 32.9867 10.6185C33.715 10.703 34.3411 11.0697 34.7484 11.6498C35.1557 12.2299 35.302 12.9626 35.1594 13.7128C35.0136 14.4801 34.5869 15.1672 33.9575 15.648Z" fill="#FFF9F9"/>
<path d="M29.1439 8.45715C28.9776 8.45715 28.814 8.37537 28.7119 8.22225L25.33 3.16644C25.1638 2.91782 25.2222 2.5759 25.4605 2.40248C25.7005 2.22905 26.0273 2.28997 26.193 2.53858L29.5749 7.59439C29.7406 7.84301 29.6827 8.18493 29.4444 8.35836C29.3528 8.42531 29.2476 8.45715 29.1439 8.45715Z" fill="#FFF9F9"/>
<path d="M39.2979 23.6361C39.1316 23.6361 38.9679 23.5543 38.8658 23.4012L35.484 18.3454C35.3182 18.0968 35.3761 17.7549 35.6145 17.5814C35.8544 17.4074 36.1812 17.4689 36.3469 17.7175L39.7288 22.7733C39.8946 23.022 39.8367 23.3639 39.5983 23.5373C39.5062 23.6043 39.4015 23.6361 39.2979 23.6361Z" fill="#FFF9F9"/>
<path d="M38.286 9.63496C38.1197 9.63496 37.9561 9.55318 37.854 9.40006C37.6882 9.15144 37.7461 8.80952 37.9845 8.63609L42.8318 5.10877C43.0712 4.93479 43.3985 4.99626 43.5643 5.24488C43.73 5.4935 43.6721 5.83542 43.4338 6.00885L38.5864 9.53617C38.4944 9.60312 38.3896 9.63496 38.286 9.63496Z" fill="#FFF9F9"/>
<path d="M44.1746 15.6815C44.1441 15.6815 44.1131 15.6788 44.082 15.6728L38.2628 14.5921C37.9766 14.5389 37.7861 14.254 37.8371 13.956C37.8882 13.658 38.1618 13.456 38.447 13.512L44.2662 14.5927C44.5524 14.6459 44.7429 14.9307 44.6919 15.2287C44.6466 15.4944 44.4246 15.6815 44.1746 15.6815Z" fill="#FFF9F9"/>
<path d="M33.5671 7.4425C33.5366 7.4425 33.5055 7.43976 33.474 7.43372C33.1882 7.38048 32.9978 7.09564 33.0488 6.79763L34.0849 0.728136C34.1354 0.430123 34.4032 0.227605 34.6953 0.284134C34.981 0.337371 35.1715 0.622212 35.1204 0.920226L34.0844 6.98972C34.0391 7.2559 33.817 7.4425 33.5671 7.4425Z" fill="#FFF9F9"/>
</g>
<defs>
<clipPath id="clip0_23_18">
<rect width="47.9381" height="50" fill="white" transform="translate(0.968994)"/>
</clipPath>
</defs>
</svg>
