<svg width="24" height="24" viewBox="0 0 24 24" fill="none" xmlns="http://www.w3.org/2000/svg">
<path d="M8.267 3C8.4039 3.00006 8.53932 3.02822 8.66489 3.08275C8.79046 3.13728 8.9035 3.21701 8.997 3.317L9.073 3.409L13.347 9.237L19.293 3.293C19.473 3.11365 19.7144 3.00953 19.9684 3.00177C20.2223 2.99402 20.4697 3.08322 20.6603 3.25125C20.8508 3.41928 20.9703 3.65355 20.9944 3.90647C21.0185 4.1594 20.9454 4.41201 20.79 4.613L20.707 4.707L14.544 10.869L20.806 19.409C20.9097 19.5505 20.9743 19.7168 20.9934 19.8912C21.0125 20.0656 20.9854 20.242 20.9148 20.4026C20.8441 20.5632 20.7325 20.7024 20.5911 20.8062C20.4496 20.91 20.2834 20.9748 20.109 20.994L20 21H15.733C15.5961 20.9999 15.4607 20.9718 15.3351 20.9172C15.2095 20.8627 15.0965 20.783 15.003 20.683L14.927 20.591L10.651 14.762L4.707 20.707C4.52704 20.8863 4.28556 20.9905 4.03162 20.9982C3.77767 21.006 3.53029 20.9168 3.33972 20.7488C3.14916 20.5807 3.02969 20.3464 3.0056 20.0935C2.98151 19.8406 3.05459 19.588 3.21 19.387L3.293 19.293L9.454 13.13L3.194 4.591C3.09031 4.44948 3.02567 4.28317 3.00659 4.10877C2.9875 3.93438 3.01463 3.75802 3.08525 3.59743C3.15587 3.43683 3.2675 3.29763 3.40893 3.19382C3.55036 3.09001 3.71662 3.02524 3.891 3.006L4 3H8.267Z" fill="black"/>
</svg>
